<mxfile host="app.diagrams.net" modified="2023-10-08T10:55:39.568Z" agent="Mozilla/5.0 (Windows NT 10.0; Win64; x64) AppleWebKit/537.36 (KHTML, like Gecko) Chrome/117.0.0.0 Safari/537.36" version="22.0.0" etag="st6nKvCZQJhFoEKy_amC" type="github">
  <diagram name="Page-1" id="BoS2gaYw4II0OxO0_MJ3">
    <mxGraphModel>
      <root>
        <mxCell id="0" />
        <mxCell id="1" parent="0" />
      </root>
    </mxGraphModel>
  </diagram>
</mxfile>
